<?xml version="1.0"?>
<svg xmlns="http://www.w3.org/2000/svg" xmlns:xlink="http://www.w3.org/1999/xlink" xmlns:svgjs="http://svgjs.com/svgjs" version="1.1" width="512" height="512" x="0" y="0" viewBox="0 0 512.047 512.047" style="enable-background:new 0 0 512 512" xml:space="preserve" class=""><g><g xmlns="http://www.w3.org/2000/svg"><path d="m433.592 41.789c-98.863-55.704-256.221-55.734-355.138 0-50.577 28.496-78.431 67.29-78.431 109.234v210c0 41.944 27.854 80.738 78.431 109.234 98.863 55.704 256.222 55.734 355.139 0 50.577-28.496 78.431-67.29 78.431-109.234v-210c-.001-41.944-27.855-80.738-78.432-109.234zm-340.411 26.137c89.77-50.579 235.916-50.578 325.685 0 84.298 47.494 84.109 118.808 0 166.195-89.77 50.579-235.916 50.578-325.685 0-84.298-47.494-84.109-118.808 0-166.195zm388.842 293.097c0 30.64-22.43 60.151-63.157 83.098-89.771 50.579-235.917 50.578-325.687 0-40.727-22.946-63.157-52.458-63.157-83.098v-138.328c12.501 13.8 28.734 26.465 48.431 37.562 123.418 69.539 325 49.167 403.569-37.562v138.328z" fill="#999999" data-original="#000000" style="" class=""/><path d="m190.23 216.725c25.055 4.932 72.156 6.496 94.799 4.298 72.473-5.009 137.994-28.835 137.994-69.999 0-33.141-42.471-55.042-96.845-64.937-19.002-3.579-44.255-6.063-70.155-6.063-10.792 0-16.932.349-23.672.664-74.56 4.187-143.328 28.165-143.328 70.336 0 34.021 44.76 56.2 101.207 65.701zm13.512-28.165-31.316-68.893c14.344-3.757 31.469-6.764 51.247-8.368l36.68 80.702c-18.7.191-37.944-.82-56.611-3.441zm109.242-74.375 30.522 67.146c-14.113 3.968-31.143 7.215-50.935 9.053l-36.524-80.359c21.359 0 40.371 1.577 56.937 4.16zm80.039 36.838c0 5.396-7.276 12.771-21.348 19.781l-21.92-48.222c28.381 8.953 43.268 20.723 43.268 28.441zm-249.066-21.491 23.389 51.454c-31.666-9.102-48.322-21.798-48.322-29.963-.001-5.836 8.512-13.99 24.933-21.491z" fill="#999999" data-original="#000000" style="" class=""/><circle cx="96.023" cy="328.023" r="15.005" fill="#999999" data-original="#000000" style="" class=""/><circle cx="192.023" cy="416.023" r="15.005" fill="#999999" data-original="#000000" style="" class=""/><circle cx="296.023" cy="352.023" r="15.005" fill="#999999" data-original="#000000" style="" class=""/><circle cx="400.023" cy="392.023" r="15.005" fill="#999999" data-original="#000000" style="" class=""/></g></g></svg>
