<?xml version="1.0"?>
<svg xmlns="http://www.w3.org/2000/svg" xmlns:xlink="http://www.w3.org/1999/xlink" xmlns:svgjs="http://svgjs.com/svgjs" version="1.1" width="512" height="512" x="0" y="0" viewBox="0 0 512 512" style="enable-background:new 0 0 512 512" xml:space="preserve"><g><g xmlns="http://www.w3.org/2000/svg"><path d="m100.235 264.514c-11.881 0-23.512 2.061-34.57 6.123-3.888 1.429-5.882 5.738-4.454 9.627 1.428 3.887 5.736 5.882 9.626 4.453 9.396-3.452 19.287-5.203 29.397-5.203 46.999 0 85.236 38.237 85.236 85.236s-38.237 85.236-85.236 85.236-85.234-38.237-85.234-85.236c0-24.056 10.243-47.11 28.102-63.254 3.073-2.777 3.312-7.52.535-10.593-2.778-3.072-7.52-3.312-10.593-.534-21 18.981-33.044 46.092-33.044 74.381 0 55.271 44.965 100.236 100.235 100.236s100.236-44.966 100.236-100.236-44.966-100.236-100.236-100.236z" fill="#999999" data-original="#000000" style=""/><path d="m153.863 364.75c0-29.57-24.057-53.628-53.627-53.628s-53.628 24.058-53.628 53.628 24.057 53.628 53.627 53.628 53.628-24.058 53.628-53.628zm-53.628 38.628c-1.495 0-2.971-.085-4.422-.251-.384-2.2-.577-4.439-.577-6.695 0-21.299 17.328-38.627 38.627-38.627 1.48 0 2.956.084 4.418.25.382 2.175.581 4.412.581 6.695.001 21.3-17.327 38.628-38.627 38.628zm-38.627-38.628c0-21.3 17.328-38.628 38.627-38.628 13.168 0 24.818 6.624 31.794 16.714-28.725.97-51.794 24.639-51.794 53.596 0 .456.006.911.018 1.366-11.168-6.779-18.645-19.056-18.645-33.048z" fill="#999999" data-original="#000000" style=""/><path d="m320.706 311.122c-29.57 0-53.627 24.058-53.627 53.628s24.057 53.628 53.627 53.628 53.627-24.058 53.627-53.628-24.057-53.628-53.627-53.628zm-38.627 53.628c0-21.3 17.328-38.628 38.627-38.628 13.168 0 24.818 6.624 31.794 16.714-28.725.97-51.794 24.639-51.794 53.596 0 .456.006.911.018 1.366-11.168-6.779-18.645-19.056-18.645-33.048zm38.627 38.628c-1.495 0-2.971-.085-4.422-.251-.384-2.2-.577-4.439-.577-6.695 0-21.299 17.328-38.627 38.627-38.627 1.48 0 2.956.084 4.418.25.382 2.175.581 4.412.581 6.695 0 21.3-17.328 38.628-38.627 38.628z" fill="#999999" data-original="#000000" style=""/><path d="m100.235 95.649c-29.57 0-53.627 24.058-53.627 53.628s24.057 53.628 53.627 53.628 53.627-24.058 53.627-53.628-24.056-53.628-53.627-53.628zm-38.627 53.628c0-21.3 17.328-38.628 38.627-38.628 13.168 0 24.818 6.624 31.794 16.714-28.725.97-51.794 24.64-51.794 53.597 0 .455.006.91.018 1.365-11.168-6.778-18.645-19.056-18.645-33.048zm38.627 38.628c-1.495 0-2.971-.085-4.422-.252-.384-2.199-.577-4.438-.577-6.694 0-21.3 17.328-38.628 38.627-38.628 1.48 0 2.956.084 4.418.25.382 2.175.581 4.412.581 6.695.001 21.301-17.327 38.629-38.627 38.629z" fill="#999999" data-original="#000000" style=""/><path d="m320.706 49.041c-11.881 0-23.513 2.061-34.571 6.124-3.888 1.429-5.881 5.739-4.453 9.627s5.739 5.881 9.626 4.453c9.396-3.453 19.287-5.204 29.397-5.204 46.999 0 85.235 38.237 85.235 85.236s-38.237 85.236-85.236 85.236-85.235-38.237-85.235-85.236c0-24.056 10.243-47.11 28.102-63.254 3.073-2.777 3.312-7.52.535-10.593-2.778-3.072-7.52-3.312-10.593-.534-20.999 18.98-33.043 46.092-33.043 74.381 0 55.271 44.966 100.236 100.236 100.236s100.235-44.966 100.235-100.236-44.965-100.236-100.235-100.236z" fill="#999999" data-original="#000000" style=""/><path d="m374.333 149.277c0-29.57-24.057-53.628-53.627-53.628s-53.627 24.058-53.627 53.628 24.057 53.628 53.627 53.628 53.627-24.057 53.627-53.628zm-53.627 38.628c-1.495 0-2.971-.085-4.422-.252-.384-2.199-.577-4.438-.577-6.694 0-21.3 17.328-38.628 38.627-38.628 1.48 0 2.956.084 4.418.25.382 2.175.581 4.412.581 6.695 0 21.301-17.328 38.629-38.627 38.629zm-38.627-38.628c0-21.3 17.328-38.628 38.627-38.628 13.168 0 24.818 6.624 31.794 16.714-28.725.97-51.794 24.64-51.794 53.597 0 .455.006.91.018 1.365-11.168-6.778-18.645-19.056-18.645-33.048z" fill="#999999" data-original="#000000" style=""/><path d="m502.943 56.459c-5.986-6.091-13.986-9.445-22.526-9.445s-16.54 3.354-22.526 9.446-9.2 14.148-9.051 22.708l3.113 154.662c.083 4.09 3.423 7.349 7.496 7.349.051 0 .103 0 .154-.002 4.141-.083 7.431-3.508 7.348-7.649l-.752-37.342h28.116l-3.683 161.064h-21.21l-1.811-88.969c-.083-4.09-3.424-7.348-7.496-7.348-.052 0-.104 0-.156.002-4.141.084-7.43 3.51-7.346 7.65l3.523 173.09c.258 12.854 10.928 23.311 23.784 23.311 12.82 0 23.489-10.428 23.783-23.245l8.292-362.594c.149-8.539-3.066-16.596-9.052-22.688zm-34.353 10.515c3.143-3.198 7.343-4.96 11.827-4.96s8.684 1.762 11.827 4.959c3.143 3.199 4.831 7.43 4.753 11.872l-1.517 66.341h-30.308l-1.334-66.3c-.078-4.484 1.61-8.714 4.752-11.912zm-2.693 114.212-.423-21h29.663l-.48 21zm14.024 268.8c-4.75 0-8.692-3.863-8.787-8.613l-1.407-69.123h20.562l-1.581 69.147c-.109 4.737-4.051 8.589-8.787 8.589z" fill="#999999" data-original="#000000" style=""/><path d="m320.706 264.514c-55.27 0-100.235 44.966-100.235 100.236s44.965 100.236 100.235 100.236 100.236-44.966 100.236-100.236-44.966-100.236-100.236-100.236zm0 185.472c-46.999 0-85.235-38.237-85.235-85.236s38.236-85.236 85.235-85.236 85.236 38.237 85.236 85.236-38.237 85.236-85.236 85.236z" fill="#999999" data-original="#000000" style=""/><path d="m100.235 49.041c-55.27 0-100.235 44.966-100.235 100.236s44.965 100.236 100.235 100.236 100.236-44.966 100.236-100.236-44.966-100.236-100.236-100.236zm0 185.473c-46.999 0-85.235-38.238-85.235-85.237s38.236-85.236 85.235-85.236 85.236 38.237 85.236 85.236-38.237 85.237-85.236 85.237z" fill="#999999" data-original="#000000" style=""/></g></g></svg>
