<?xml version="1.0"?>
<svg xmlns="http://www.w3.org/2000/svg" xmlns:xlink="http://www.w3.org/1999/xlink" xmlns:svgjs="http://svgjs.com/svgjs" version="1.1" width="512" height="512" x="0" y="0" viewBox="0 0 463.997 463.997" style="enable-background:new 0 0 512 512" xml:space="preserve"><g>
<g xmlns="http://www.w3.org/2000/svg">
	<g>
		<path d="M438.1,186.39l-10.208-12.584c-9.368-10.64-20.336-20.472-32.784-29.368l-13.616-9.016    c-14.064-8.568-29.32-15.928-45.552-21.744c-1.952-0.712-4.096-1.312-6.128-1.992l-15.848-3.888    c-9.592-2.616-19.72-5.36-30.2-7.096c-6.192-1.032-11.768-2.288-19.768-2.976V79.998h-64v17.728    c-8,0.696-13.336,1.504-19.504,2.544c-10.512,1.736-20.456,4.04-30.048,6.656l-5.872,1.552h0.008    c-0.024,0.008-0.048,0.008-0.064,0.016l-9.912,3.104c-2.04,0.68-4.072,1.36-6.016,2.072c-16.264,5.832-31.528,13.184-45.6,21.76    l-5.584,3.384c-0.008,0.008-0.016,0.008-0.024,0.016l-8.008,5.616c-12.448,8.896-23.416,18.728-32.784,29.36l-4.544,5.128    c-0.008,0.008-0.016,0.016-0.016,0.024l-5.648,7.432c-15.848,21.792-24.752,44.984-26.36,69.088    c-0.272,4.144,2.184,7.84,6.104,9.208c1,0.344,2.016,0.512,3.032,0.512c2.984,0,5.76-1.448,7.536-4    c1.352-1.936,7.304-5.52,15.304-10.112v44.912c0,39.696,32.536,72,72.24,72h95.76v16h64v-16h96.24c39.704,0,71.76-32.304,71.76-72    v-44.88c8,4.48,13.672,8.088,15.056,10.072c1.776,2.56,4.736,4.016,7.728,4.016c1.016,0,2.08-0.168,3.064-0.512    c3.928-1.368,6.152-5.072,6.152-9.216v-0.016C463.996,231.038,453.613,207.846,438.1,186.39z M134.02,128.71    c2.96-1.08,6.032-2.128,9.192-3.12l51.104,83.048c-2.704,0.096-5.376,0.208-8.032,0.328c-4.288,0.192-8.68,0.424-13.296,0.712    c-4.992,0.288-9.928,0.608-14.784,0.968l-63.632-63.624C106.796,139.87,120.02,133.726,134.02,128.71z M80.749,155.83    l28.96,28.952l27.664,27.664c-9.736,0.96-19.144,2.056-28.112,3.304l-48.76-28.144l-9.88-5.704    C59.252,172.486,69.34,163.75,80.749,155.83z M37.421,231.742l-5.424,1.904v0.08c-8,2.072-9.776,4.16-13.68,6.296    c3.632-15.696,11-30.968,21.896-45.616l44.016,25.392c-9.112,1.696-17.616,3.552-25.464,5.56c-0.064,0.016-0.12,0.032-0.184,0.048    c-3.424,0.88-6.696,1.792-9.848,2.728c-0.664,0.2-1.336,0.392-1.984,0.592C43.549,229.71,40.317,230.71,37.421,231.742z     M199.989,351.998h-95.752c-30.88,0-56.24-25.12-56.24-56V245.03c0-0.064,0.504-0.136,0.704-0.2    c1.008-0.32,2.128-0.632,3.176-0.952c1.224-0.368,2.472-0.744,3.744-1.104c1.128-0.32,2.328-0.632,3.496-0.952    c1.248-0.336,2.496-0.672,3.784-1c1.376-0.352,2.808-0.688,4.232-1.032c1.12-0.272,2.24-0.544,3.392-0.808    c1.76-0.4,3.56-0.792,5.384-1.184c0.832-0.176,1.664-0.36,2.504-0.536c2.256-0.464,4.552-0.92,6.896-1.36    c0.408-0.08,0.816-0.16,1.232-0.232c7.576-1.416,15.64-2.704,24.048-3.888c6.712-0.936,13.552-1.8,20.512-2.56    c0.432-0.048,0.856-0.096,1.288-0.144c7.648-0.824,15.416-1.536,23.264-2.136l0.168-0.016c5.392-0.424,10.336-0.784,15.056-1.088    c1.936-0.12,3.864-0.248,5.816-0.36c0.232-0.016,0.48-0.032,0.712-0.04c3.672-0.2,7.256-0.384,10.984-0.544    c3.832-0.168,11.6-0.272,11.6-0.392V351.998z M199.997,187.726l-7.848-12.952l-33.064-53.728c7.688-1.952,15.728-3.624,24.04-5    c5.384-0.904,8.872-1.68,16.872-2.312V187.726z M247.997,367.998h-32V244.262v-0.008V224.07v-10.336V96.294v-0.296h32V367.998z     M383.717,155.822c11.416,7.928,21.504,16.664,30.144,26.08l-58.704,33.88c-1.68-0.232-3.472-0.384-5.168-0.608    c-6.56-0.856-13.168-1.656-19.92-2.344c-1.016-0.104-1.976-0.256-3-0.352L383.717,155.822z M321.26,125.59    c3.16,1,6.24,2.048,9.232,3.136c13.968,5,27.176,11.144,39.408,18.288l-34.864,34.864l-28.8,28.8    c-3.48-0.272-6.984-0.504-10.48-0.744c-5.76-0.408-11.6-0.728-17.56-0.976c-2.656-0.12-5.336-0.232-8.04-0.328L321.26,125.59z     M263.996,113.734c8,0.632,11.728,1.408,17.136,2.312c8.288,1.376,16.264,3.048,23.96,5l-41.096,66.688V113.734z M415.996,295.998    c0,30.88-24.88,56-55.76,56h-96.24V224.51c8,0.136,9.048,0.248,13.4,0.44c5.832,0.232,11.576,0.552,17.2,0.952    c4.672,0.32,9.368,0.64,14.04,1.032c16.096,1.224,31.896,2.928,46.936,5.064l0.528,0.064c0.136,0.016,0.272,0.04,0.416,0.064    c6.432,0.904,12.6,1.888,18.552,3.032c3.032,0.544,6.056,1.088,9.16,1.752c2.92,0.544,5.704,1.16,8.456,1.784    c2.448,0.536,4.728,1.064,7.296,1.752c2.672,0.608,5.176,1.296,7.648,1.992c2.872,0.8,5.432,1.6,7.952,2.408    c0.184,0.048,0.416,0.112,0.416,0.176V295.998z M431.996,233.838v-0.16l-5.144-1.912c-4.384-1.6-9.4-3.2-14.992-4.744    c-2.672-0.752-5.416-1.504-8.072-2.112c-2.504-0.664-5.008-1.256-7.632-1.832c-2.896-0.664-5.872-1.328-8.808-1.856    c-2.336-0.504-4.76-0.96-7.168-1.4l44.016-25.408c10.672,14.416,17.704,29.656,21.288,45.512    C441.709,237.83,439.996,235.814,431.996,233.838z" fill="#999999" data-original="#000000" style=""/>
	</g>
</g>
<g xmlns="http://www.w3.org/2000/svg">
	<g>
		<rect x="344.236" y="319.998" width="16" height="16" fill="#999999" data-original="#000000" style=""/>
	</g>
</g>
<g xmlns="http://www.w3.org/2000/svg">
	<g>
		<rect x="368.236" y="295.998" width="16" height="16" fill="#999999" data-original="#000000" style=""/>
	</g>
</g>
<g xmlns="http://www.w3.org/2000/svg">
	<g>
		<rect x="328.236" y="279.998" width="16" height="16" fill="#999999" data-original="#000000" style=""/>
	</g>
</g>
<g xmlns="http://www.w3.org/2000/svg">
</g>
<g xmlns="http://www.w3.org/2000/svg">
</g>
<g xmlns="http://www.w3.org/2000/svg">
</g>
<g xmlns="http://www.w3.org/2000/svg">
</g>
<g xmlns="http://www.w3.org/2000/svg">
</g>
<g xmlns="http://www.w3.org/2000/svg">
</g>
<g xmlns="http://www.w3.org/2000/svg">
</g>
<g xmlns="http://www.w3.org/2000/svg">
</g>
<g xmlns="http://www.w3.org/2000/svg">
</g>
<g xmlns="http://www.w3.org/2000/svg">
</g>
<g xmlns="http://www.w3.org/2000/svg">
</g>
<g xmlns="http://www.w3.org/2000/svg">
</g>
<g xmlns="http://www.w3.org/2000/svg">
</g>
<g xmlns="http://www.w3.org/2000/svg">
</g>
<g xmlns="http://www.w3.org/2000/svg">
</g>
</g></svg>
